<svg width="337" height="46" viewBox="0 0 337 46" fill="none" xmlns="http://www.w3.org/2000/svg">
<path d="M1.088 3.93293C1.01333 3.93293 0.949333 3.90626 0.896 3.85293C0.853333 3.7996 0.832 3.7356 0.832 3.66093C0.832 3.59693 0.848 3.5116 0.88 3.40493L1.712 1.26093C1.76533 1.13293 1.824 1.04226 1.888 0.988929C1.952 0.924929 2.048 0.892929 2.176 0.892929H2.672C2.75733 0.892929 2.82133 0.924929 2.864 0.988929C2.91733 1.05293 2.93333 1.13293 2.912 1.22893L2.56 3.46893C2.528 3.77826 2.37867 3.93293 2.112 3.93293H1.088ZM3.6 3.93293C3.52533 3.93293 3.46133 3.90626 3.408 3.85293C3.36533 3.7996 3.344 3.7356 3.344 3.66093C3.344 3.59693 3.36 3.5116 3.392 3.40493L4.224 1.26093C4.27733 1.13293 4.336 1.04226 4.4 0.988929C4.464 0.924929 4.56 0.892929 4.688 0.892929H5.184C5.26933 0.892929 5.33333 0.924929 5.376 0.988929C5.42933 1.05293 5.44533 1.13293 5.424 1.22893L5.072 3.46893C5.04 3.77826 4.89067 3.93293 4.624 3.93293H3.6ZM7.99438 12.2529C7.88771 12.2529 7.80238 12.2209 7.73838 12.1569C7.67438 12.0823 7.64238 11.9916 7.64238 11.8849V1.42093C7.64238 1.31426 7.67438 1.22893 7.73838 1.16493C7.80238 1.09026 7.88771 1.05293 7.99438 1.05293H8.79438C8.91171 1.05293 9.00238 1.08493 9.06638 1.14893C9.13038 1.21293 9.16238 1.3036 9.16238 1.42093V11.8849C9.16238 11.9916 9.12504 12.0823 9.05038 12.1569C8.98638 12.2209 8.90104 12.2529 8.79438 12.2529H7.99438ZM16.0996 12.2529C15.993 12.2529 15.9023 12.2209 15.8276 12.1569C15.7636 12.0823 15.7316 11.9916 15.7316 11.8849V1.26093C15.7316 1.1436 15.7636 1.05293 15.8276 0.988929C15.9023 0.924929 15.993 0.892929 16.0996 0.892929H16.8036C16.9103 0.892929 16.9956 0.930263 17.0596 1.00493C17.1343 1.06893 17.1716 1.15426 17.1716 1.26093V11.8849C17.1716 11.9916 17.1343 12.0823 17.0596 12.1569C16.9956 12.2209 16.9103 12.2529 16.8036 12.2529H16.0996ZM19.815 2.36493C19.7083 2.36493 19.6177 2.33293 19.543 2.26893C19.479 2.19426 19.447 2.1036 19.447 1.99693V1.16493C19.447 1.05826 19.479 0.967596 19.543 0.892929C19.6177 0.818263 19.7083 0.78093 19.815 0.78093H20.759C20.8657 0.78093 20.9563 0.818263 21.031 0.892929C21.1057 0.967596 21.143 1.05826 21.143 1.16493V1.99693C21.143 2.1036 21.1057 2.19426 21.031 2.26893C20.9563 2.33293 20.8657 2.36493 20.759 2.36493H19.815ZM19.943 12.2529C19.8363 12.2529 19.7457 12.2209 19.671 12.1569C19.607 12.0823 19.575 11.9916 19.575 11.8849V4.30093C19.575 4.19426 19.607 4.10893 19.671 4.04493C19.7457 3.97026 19.8363 3.93293 19.943 3.93293H20.647C20.7537 3.93293 20.839 3.97026 20.903 4.04493C20.9777 4.10893 21.015 4.19426 21.015 4.30093V11.8849C21.015 11.9916 20.9777 12.0823 20.903 12.1569C20.839 12.2209 20.7537 12.2529 20.647 12.2529H19.943ZM23.8028 12.2529C23.6961 12.2529 23.6054 12.2209 23.5308 12.1569C23.4668 12.0823 23.4348 11.9916 23.4348 11.8849V1.26093C23.4348 1.1436 23.4668 1.05293 23.5308 0.988929C23.6054 0.924929 23.6961 0.892929 23.8028 0.892929H24.4908C24.5974 0.892929 24.6828 0.930263 24.7468 1.00493C24.8214 1.06893 24.8588 1.15426 24.8588 1.26093V6.84493L28.0588 4.20493C28.2188 4.0876 28.3308 4.01293 28.3948 3.98093C28.4588 3.94893 28.5601 3.93293 28.6988 3.93293H29.4988C29.5948 3.93293 29.6694 3.96493 29.7228 4.02893C29.7868 4.08226 29.8188 4.16226 29.8188 4.26893C29.8188 4.36493 29.7601 4.46626 29.6428 4.57293L25.8988 7.64493L30.0428 11.6129C30.1601 11.7303 30.2188 11.8316 30.2188 11.9169C30.2188 12.0129 30.1868 12.0929 30.1228 12.1569C30.0694 12.2209 29.9948 12.2529 29.8988 12.2529H29.1148C28.9548 12.2529 28.8374 12.2369 28.7628 12.2049C28.6988 12.1729 28.6028 12.0983 28.4748 11.9809L24.8588 8.55693V11.8849C24.8588 11.9916 24.8214 12.0823 24.7468 12.1569C24.6828 12.2209 24.5974 12.2529 24.4908 12.2529H23.8028ZM34.5273 12.4129C33.4393 12.4129 32.5699 12.0769 31.9193 11.4049C31.2686 10.7223 30.9113 9.79426 30.8473 8.62093L30.8313 8.07693L30.8473 7.54893C30.9113 6.39693 31.2686 5.4796 31.9193 4.79693C32.5699 4.11426 33.4393 3.77293 34.5273 3.77293C35.7006 3.77293 36.6073 4.14626 37.2473 4.89293C37.8979 5.6396 38.2233 6.65293 38.2233 7.93293V8.22093C38.2233 8.3276 38.1859 8.41826 38.1112 8.49293C38.0473 8.55693 37.9619 8.58893 37.8553 8.58893H32.3033V8.73293C32.3353 9.42626 32.5486 10.0183 32.9433 10.5089C33.3379 10.9996 33.8606 11.2449 34.5113 11.2449C35.0126 11.2449 35.4179 11.1489 35.7273 10.9569C36.0473 10.7543 36.2873 10.5463 36.4473 10.3329C36.5433 10.2049 36.6179 10.1303 36.6713 10.1089C36.7246 10.0769 36.8153 10.0609 36.9433 10.0609H37.6473C37.7433 10.0609 37.8233 10.0876 37.8873 10.1409C37.9619 10.1943 37.9993 10.2636 37.9993 10.3489C37.9993 10.5836 37.8553 10.8663 37.5673 11.1969C37.2793 11.5276 36.8686 11.8156 36.3353 12.0609C35.8126 12.2956 35.2099 12.4129 34.5273 12.4129ZM36.7673 7.50093V7.45293C36.7673 6.70626 36.5646 6.09826 36.1593 5.62893C35.7539 5.1596 35.2099 4.92493 34.5273 4.92493C33.8339 4.92493 33.2899 5.1596 32.8953 5.62893C32.5006 6.09826 32.3033 6.70626 32.3033 7.45293V7.50093H36.7673ZM44.3463 2.36493C44.2396 2.36493 44.1489 2.33293 44.0743 2.26893C44.0103 2.19426 43.9783 2.1036 43.9783 1.99693V1.16493C43.9783 1.05826 44.0103 0.967596 44.0743 0.892929C44.1489 0.818263 44.2396 0.78093 44.3463 0.78093H45.2903C45.3969 0.78093 45.4876 0.818263 45.5623 0.892929C45.6369 0.967596 45.6743 1.05826 45.6743 1.16493V1.99693C45.6743 2.1036 45.6369 2.19426 45.5623 2.26893C45.4876 2.33293 45.3969 2.36493 45.2903 2.36493H44.3463ZM44.4743 12.2529C44.3676 12.2529 44.2769 12.2209 44.2023 12.1569C44.1383 12.0823 44.1063 11.9916 44.1063 11.8849V4.30093C44.1063 4.19426 44.1383 4.10893 44.2023 4.04493C44.2769 3.97026 44.3676 3.93293 44.4743 3.93293H45.1783C45.2849 3.93293 45.3703 3.97026 45.4343 4.04493C45.5089 4.10893 45.5463 4.19426 45.5463 4.30093V11.8849C45.5463 11.9916 45.5089 12.0823 45.4343 12.1569C45.3703 12.2209 45.2849 12.2529 45.1783 12.2529H44.4743ZM51.15 12.2529C49.4967 12.2529 48.67 11.3196 48.67 9.45293V5.16493H47.406C47.2993 5.16493 47.214 5.13293 47.15 5.06893C47.086 5.00493 47.054 4.9196 47.054 4.81293V4.30093C47.054 4.19426 47.086 4.10893 47.15 4.04493C47.214 3.97026 47.2993 3.93293 47.406 3.93293H48.67V1.26093C48.67 1.15426 48.702 1.06893 48.766 1.00493C48.83 0.930263 48.9153 0.892929 49.022 0.892929H49.726C49.8327 0.892929 49.918 0.930263 49.982 1.00493C50.0567 1.06893 50.094 1.15426 50.094 1.26093V3.93293H52.078C52.1847 3.93293 52.27 3.97026 52.334 4.04493C52.4087 4.10893 52.446 4.19426 52.446 4.30093V4.81293C52.446 4.9196 52.4087 5.00493 52.334 5.06893C52.27 5.13293 52.1847 5.16493 52.078 5.16493H50.094V9.34093C50.094 9.88493 50.1793 10.2956 50.35 10.5729C50.5313 10.8503 50.8353 10.9889 51.262 10.9889H52.238C52.3447 10.9889 52.43 11.0263 52.494 11.1009C52.558 11.1649 52.59 11.2503 52.59 11.3569V11.8849C52.59 11.9916 52.558 12.0823 52.494 12.1569C52.43 12.2209 52.3447 12.2529 52.238 12.2529H51.15ZM62.1546 12.4129C61.0026 12.4129 60.1226 12.0076 59.5146 11.1969V11.8849C59.5146 11.9916 59.4773 12.0823 59.4026 12.1569C59.3386 12.2209 59.2533 12.2529 59.1466 12.2529H58.4746C58.368 12.2529 58.2773 12.2209 58.2026 12.1569C58.1386 12.0823 58.1066 11.9916 58.1066 11.8849V1.26093C58.1066 1.1436 58.1386 1.05293 58.2026 0.988929C58.2773 0.924929 58.368 0.892929 58.4746 0.892929H59.1946C59.3013 0.892929 59.3866 0.930263 59.4506 1.00493C59.5253 1.06893 59.5626 1.15426 59.5626 1.26093V4.95693C60.16 4.1676 61.024 3.77293 62.1546 3.77293C63.2746 3.77293 64.112 4.14093 64.6666 4.87693C65.232 5.60226 65.5306 6.51426 65.5626 7.61293C65.5733 7.73026 65.5786 7.89026 65.5786 8.09293C65.5786 8.2956 65.5733 8.4556 65.5626 8.57293C65.5306 9.6716 65.232 10.5889 64.6666 11.3249C64.112 12.0503 63.2746 12.4129 62.1546 12.4129ZM61.8506 11.1649C62.6186 11.1649 63.1786 10.9249 63.5306 10.4449C63.8826 9.96493 64.0746 9.3356 64.1066 8.55693C64.1173 8.45026 64.1226 8.2956 64.1226 8.09293C64.1226 6.04493 63.3653 5.02093 61.8506 5.02093C61.1253 5.02093 60.5653 5.26093 60.1706 5.74093C59.7866 6.21026 59.584 6.77026 59.5626 7.42093C59.552 7.53826 59.5466 7.74626 59.5466 8.04493C59.5466 8.33293 59.552 8.5356 59.5626 8.65293C59.584 9.3356 59.7813 9.9276 60.1546 10.4289C60.5386 10.9196 61.104 11.1649 61.8506 11.1649ZM70.8866 12.4129C69.7986 12.4129 68.9293 12.0769 68.2786 11.4049C67.628 10.7223 67.2706 9.79426 67.2066 8.62093L67.1906 8.07693L67.2066 7.54893C67.2706 6.39693 67.628 5.4796 68.2786 4.79693C68.9293 4.11426 69.7986 3.77293 70.8866 3.77293C72.06 3.77293 72.9666 4.14626 73.6066 4.89293C74.2573 5.6396 74.5826 6.65293 74.5826 7.93293V8.22093C74.5826 8.3276 74.5453 8.41826 74.4706 8.49293C74.4066 8.55693 74.3213 8.58893 74.2146 8.58893H68.6626V8.73293C68.6946 9.42626 68.908 10.0183 69.3026 10.5089C69.6973 10.9996 70.22 11.2449 70.8706 11.2449C71.372 11.2449 71.7773 11.1489 72.0866 10.9569C72.4066 10.7543 72.6466 10.5463 72.8066 10.3329C72.9026 10.2049 72.9773 10.1303 73.0306 10.1089C73.084 10.0769 73.1746 10.0609 73.3026 10.0609H74.0066C74.1026 10.0609 74.1826 10.0876 74.2466 10.1409C74.3213 10.1943 74.3586 10.2636 74.3586 10.3489C74.3586 10.5836 74.2146 10.8663 73.9266 11.1969C73.6386 11.5276 73.228 11.8156 72.6946 12.0609C72.172 12.2956 71.5693 12.4129 70.8866 12.4129ZM73.1266 7.50093V7.45293C73.1266 6.70626 72.924 6.09826 72.5186 5.62893C72.1133 5.1596 71.5693 4.92493 70.8866 4.92493C70.1933 4.92493 69.6493 5.1596 69.2546 5.62893C68.86 6.09826 68.6626 6.70626 68.6626 7.45293V7.50093H73.1266ZM79.8561 12.4129C78.7148 12.4129 77.8241 12.0929 77.1841 11.4529C76.5441 10.8023 76.2081 9.8956 76.1761 8.73293L76.1601 8.09293L76.1761 7.45293C76.2081 6.29026 76.5441 5.38893 77.1841 4.74893C77.8241 4.09826 78.7148 3.77293 79.8561 3.77293C80.6241 3.77293 81.2695 3.9116 81.7921 4.18893C82.3255 4.4556 82.7201 4.7916 82.9761 5.19693C83.2428 5.60226 83.3868 6.0076 83.4081 6.41293C83.4188 6.50893 83.3815 6.59426 83.2961 6.66893C83.2215 6.7436 83.1361 6.78093 83.0401 6.78093H82.3361C82.2295 6.78093 82.1495 6.7596 82.0961 6.71693C82.0428 6.6636 81.9895 6.57293 81.9361 6.44493C81.7441 5.92226 81.4775 5.55426 81.1361 5.34093C80.8055 5.11693 80.3841 5.00493 79.8721 5.00493C79.2001 5.00493 78.6668 5.21293 78.2721 5.62893C77.8775 6.04493 77.6641 6.6796 77.6321 7.53293L77.6161 8.09293L77.6321 8.65293C77.6641 9.50626 77.8775 10.1409 78.2721 10.5569C78.6668 10.9729 79.2001 11.1809 79.8721 11.1809C80.3948 11.1809 80.8215 11.0743 81.1521 10.8609C81.4828 10.6369 81.7441 10.2636 81.9361 9.74093C81.9895 9.61293 82.0428 9.5276 82.0961 9.48493C82.1495 9.4316 82.2295 9.40493 82.3361 9.40493H83.0401C83.1361 9.40493 83.2215 9.44226 83.2961 9.51693C83.3815 9.5916 83.4188 9.67693 83.4081 9.77293C83.3868 10.1676 83.2428 10.5676 82.9761 10.9729C82.7201 11.3783 82.3255 11.7196 81.7921 11.9969C81.2695 12.2743 80.6241 12.4129 79.8561 12.4129ZM87.629 12.4129C87.1063 12.4129 86.621 12.3063 86.173 12.0929C85.7357 11.8796 85.3837 11.5916 85.117 11.2289C84.861 10.8556 84.733 10.4449 84.733 9.99693C84.733 9.29293 85.021 8.71693 85.597 8.26893C86.173 7.82093 86.957 7.52226 87.949 7.37293L90.349 7.03693V6.57293C90.349 5.47426 89.7143 4.92493 88.445 4.92493C87.9543 4.92493 87.5597 5.02626 87.261 5.22893C86.9623 5.42093 86.7437 5.65026 86.605 5.91693C86.5623 6.0236 86.5143 6.09826 86.461 6.14093C86.4183 6.17293 86.3543 6.18893 86.269 6.18893H85.645C85.549 6.18893 85.4637 6.15693 85.389 6.09293C85.325 6.01826 85.293 5.93293 85.293 5.83693C85.293 5.5916 85.405 5.30893 85.629 4.98893C85.8637 4.65826 86.221 4.3756 86.701 4.14093C87.181 3.8956 87.7677 3.77293 88.461 3.77293C89.6557 3.77293 90.509 4.05026 91.021 4.60493C91.5437 5.1596 91.805 5.85293 91.805 6.68493V11.8849C91.805 11.9916 91.7677 12.0823 91.693 12.1569C91.629 12.2209 91.5437 12.2529 91.437 12.2529H90.733C90.6263 12.2529 90.541 12.2209 90.477 12.1569C90.413 12.0823 90.381 11.9916 90.381 11.8849V11.1809C90.1463 11.5329 89.805 11.8263 89.357 12.0609C88.909 12.2956 88.333 12.4129 87.629 12.4129ZM87.949 11.2449C88.653 11.2449 89.229 11.0156 89.677 10.5569C90.125 10.0983 90.349 9.4316 90.349 8.55693V8.10893L88.477 8.38093C87.709 8.4876 87.1277 8.66893 86.733 8.92493C86.3383 9.18093 86.141 9.50093 86.141 9.88493C86.141 10.3223 86.317 10.6583 86.669 10.8929C87.0317 11.1276 87.4583 11.2449 87.949 11.2449ZM97.2259 12.4129C96.2125 12.4129 95.4285 12.0876 94.8739 11.4369C94.3192 10.7756 94.0419 9.90093 94.0419 8.81293V4.30093C94.0419 4.19426 94.0739 4.10893 94.1379 4.04493C94.2125 3.97026 94.3032 3.93293 94.4099 3.93293H95.1459C95.2525 3.93293 95.3379 3.97026 95.4019 4.04493C95.4765 4.10893 95.5139 4.19426 95.5139 4.30093V8.73293C95.5139 10.3543 96.2179 11.1649 97.6259 11.1649C98.3085 11.1649 98.8472 10.9516 99.2419 10.5249C99.6472 10.0876 99.8499 9.49026 99.8499 8.73293V4.30093C99.8499 4.19426 99.8819 4.10893 99.9459 4.04493C100.021 3.97026 100.111 3.93293 100.218 3.93293H100.954C101.061 3.93293 101.146 3.97026 101.21 4.04493C101.285 4.10893 101.322 4.19426 101.322 4.30093V11.8849C101.322 11.9916 101.285 12.0823 101.21 12.1569C101.146 12.2209 101.061 12.2529 100.954 12.2529H100.266C100.159 12.2529 100.069 12.2209 99.9939 12.1569C99.9299 12.0823 99.8979 11.9916 99.8979 11.8849V11.1649C99.5885 11.5809 99.2259 11.8956 98.8099 12.1089C98.3939 12.3116 97.8659 12.4129 97.2259 12.4129ZM106.564 12.4129C105.828 12.4129 105.204 12.2956 104.692 12.0609C104.19 11.8156 103.817 11.5383 103.572 11.2289C103.326 10.9196 103.204 10.6636 103.204 10.4609C103.204 10.3543 103.241 10.2743 103.316 10.2209C103.39 10.1569 103.47 10.1249 103.556 10.1249H104.228C104.292 10.1249 104.34 10.1356 104.372 10.1569C104.414 10.1783 104.468 10.2263 104.532 10.3009C104.777 10.5996 105.049 10.8343 105.348 11.0049C105.657 11.1756 106.068 11.2609 106.58 11.2609C107.156 11.2609 107.614 11.1543 107.956 10.9409C108.308 10.7276 108.484 10.4183 108.484 10.0129C108.484 9.74626 108.409 9.53293 108.26 9.37293C108.11 9.21293 107.86 9.06893 107.508 8.94093C107.166 8.81293 106.654 8.67426 105.972 8.52493C105.044 8.32226 104.388 8.02893 104.004 7.64493C103.62 7.26093 103.428 6.76493 103.428 6.15693C103.428 5.76226 103.545 5.3836 103.78 5.02093C104.014 4.6476 104.361 4.34893 104.82 4.12493C105.289 3.89026 105.844 3.77293 106.484 3.77293C107.156 3.77293 107.726 3.88493 108.196 4.10893C108.676 4.33293 109.033 4.59426 109.268 4.89293C109.513 5.1916 109.636 5.44226 109.636 5.64493C109.636 5.74093 109.598 5.82093 109.524 5.88493C109.46 5.94893 109.38 5.98093 109.284 5.98093H108.676C108.526 5.98093 108.42 5.92226 108.356 5.80493C108.174 5.60226 108.02 5.4476 107.892 5.34093C107.774 5.2236 107.598 5.1276 107.364 5.05293C107.129 4.9676 106.836 4.92493 106.484 4.92493C105.961 4.92493 105.561 5.03693 105.284 5.26093C105.006 5.47426 104.868 5.76226 104.868 6.12493C104.868 6.34893 104.926 6.54093 105.044 6.70093C105.161 6.85026 105.385 6.99426 105.716 7.13293C106.046 7.26093 106.537 7.39426 107.188 7.53293C108.201 7.74626 108.916 8.05026 109.332 8.44493C109.758 8.8396 109.972 9.34626 109.972 9.96493C109.972 10.4236 109.838 10.8396 109.572 11.2129C109.316 11.5863 108.926 11.8796 108.404 12.0929C107.892 12.3063 107.278 12.4129 106.564 12.4129ZM115.137 12.4129C114.049 12.4129 113.179 12.0769 112.529 11.4049C111.878 10.7223 111.521 9.79426 111.457 8.62093L111.441 8.07693L111.457 7.54893C111.521 6.39693 111.878 5.4796 112.529 4.79693C113.179 4.11426 114.049 3.77293 115.137 3.77293C116.31 3.77293 117.217 4.14626 117.857 4.89293C118.507 5.6396 118.833 6.65293 118.833 7.93293V8.22093C118.833 8.3276 118.795 8.41826 118.721 8.49293C118.657 8.55693 118.571 8.58893 118.465 8.58893H112.913V8.73293C112.945 9.42626 113.158 10.0183 113.553 10.5089C113.947 10.9996 114.47 11.2449 115.121 11.2449C115.622 11.2449 116.027 11.1489 116.337 10.9569C116.657 10.7543 116.897 10.5463 117.057 10.3329C117.153 10.2049 117.227 10.1303 117.281 10.1089C117.334 10.0769 117.425 10.0609 117.553 10.0609H118.257C118.353 10.0609 118.433 10.0876 118.497 10.1409C118.571 10.1943 118.609 10.2636 118.609 10.3489C118.609 10.5836 118.465 10.8663 118.177 11.1969C117.889 11.5276 117.478 11.8156 116.945 12.0609C116.422 12.2956 115.819 12.4129 115.137 12.4129ZM117.377 7.50093V7.45293C117.377 6.70626 117.174 6.09826 116.769 5.62893C116.363 5.1596 115.819 4.92493 115.137 4.92493C114.443 4.92493 113.899 5.1596 113.505 5.62893C113.11 6.09826 112.913 6.70626 112.913 7.45293V7.50093H117.377ZM125.276 12.2529C125.169 12.2529 125.084 12.2209 125.02 12.1569C124.956 12.0823 124.924 11.9916 124.924 11.8849V1.42093C124.924 1.31426 124.956 1.22893 125.02 1.16493C125.084 1.09026 125.169 1.05293 125.276 1.05293H126.076C126.193 1.05293 126.284 1.08493 126.348 1.14893C126.412 1.21293 126.444 1.3036 126.444 1.42093V11.8849C126.444 11.9916 126.406 12.0823 126.332 12.1569C126.268 12.2209 126.182 12.2529 126.076 12.2529H125.276ZM133.381 12.2529C133.274 12.2529 133.184 12.2209 133.109 12.1569C133.045 12.0823 133.013 11.9916 133.013 11.8849V1.26093C133.013 1.1436 133.045 1.05293 133.109 0.988929C133.184 0.924929 133.274 0.892929 133.381 0.892929H134.085C134.192 0.892929 134.277 0.930263 134.341 1.00493C134.416 1.06893 134.453 1.15426 134.453 1.26093V11.8849C134.453 11.9916 134.416 12.0823 134.341 12.1569C134.277 12.2209 134.192 12.2529 134.085 12.2529H133.381ZM137.096 2.36493C136.99 2.36493 136.899 2.33293 136.824 2.26893C136.76 2.19426 136.728 2.1036 136.728 1.99693V1.16493C136.728 1.05826 136.76 0.967596 136.824 0.892929C136.899 0.818263 136.99 0.78093 137.096 0.78093H138.04C138.147 0.78093 138.238 0.818263 138.312 0.892929C138.387 0.967596 138.424 1.05826 138.424 1.16493V1.99693C138.424 2.1036 138.387 2.19426 138.312 2.26893C138.238 2.33293 138.147 2.36493 138.04 2.36493H137.096ZM137.224 12.2529C137.118 12.2529 137.027 12.2209 136.952 12.1569C136.888 12.0823 136.856 11.9916 136.856 11.8849V4.30093C136.856 4.19426 136.888 4.10893 136.952 4.04493C137.027 3.97026 137.118 3.93293 137.224 3.93293H137.928C138.035 3.93293 138.12 3.97026 138.184 4.04493C138.259 4.10893 138.296 4.19426 138.296 4.30093V11.8849C138.296 11.9916 138.259 12.0823 138.184 12.1569C138.12 12.2209 138.035 12.2529 137.928 12.2529H137.224ZM141.084 12.2529C140.977 12.2529 140.887 12.2209 140.812 12.1569C140.748 12.0823 140.716 11.9916 140.716 11.8849V1.26093C140.716 1.1436 140.748 1.05293 140.812 0.988929C140.887 0.924929 140.977 0.892929 141.084 0.892929H141.772C141.879 0.892929 141.964 0.930263 142.028 1.00493C142.103 1.06893 142.14 1.15426 142.14 1.26093V6.84493L145.34 4.20493C145.5 4.0876 145.612 4.01293 145.676 3.98093C145.74 3.94893 145.841 3.93293 145.98 3.93293H146.78C146.876 3.93293 146.951 3.96493 147.004 4.02893C147.068 4.08226 147.1 4.16226 147.1 4.26893C147.1 4.36493 147.041 4.46626 146.924 4.57293L143.18 7.64493L147.324 11.6129C147.441 11.7303 147.5 11.8316 147.5 11.9169C147.5 12.0129 147.468 12.0929 147.404 12.1569C147.351 12.2209 147.276 12.2529 147.18 12.2529H146.396C146.236 12.2529 146.119 12.2369 146.044 12.2049C145.98 12.1729 145.884 12.0983 145.756 11.9809L142.14 8.55693V11.8849C142.14 11.9916 142.103 12.0823 142.028 12.1569C141.964 12.2209 141.879 12.2529 141.772 12.2529H141.084ZM151.809 12.4129C150.721 12.4129 149.851 12.0769 149.201 11.4049C148.55 10.7223 148.193 9.79426 148.129 8.62093L148.113 8.07693L148.129 7.54893C148.193 6.39693 148.55 5.4796 149.201 4.79693C149.851 4.11426 150.721 3.77293 151.809 3.77293C152.982 3.77293 153.889 4.14626 154.529 4.89293C155.179 5.6396 155.505 6.65293 155.505 7.93293V8.22093C155.505 8.3276 155.467 8.41826 155.392 8.49293C155.329 8.55693 155.243 8.58893 155.137 8.58893H149.585V8.73293C149.617 9.42626 149.83 10.0183 150.225 10.5089C150.619 10.9996 151.142 11.2449 151.793 11.2449C152.294 11.2449 152.699 11.1489 153.009 10.9569C153.329 10.7543 153.569 10.5463 153.729 10.3329C153.825 10.2049 153.899 10.1303 153.953 10.1089C154.006 10.0769 154.097 10.0609 154.225 10.0609H154.929C155.025 10.0609 155.105 10.0876 155.169 10.1409C155.243 10.1943 155.281 10.2636 155.281 10.3489C155.281 10.5836 155.137 10.8663 154.849 11.1969C154.561 11.5276 154.15 11.8156 153.617 12.0609C153.094 12.2956 152.491 12.4129 151.809 12.4129ZM154.049 7.50093V7.45293C154.049 6.70626 153.846 6.09826 153.441 5.62893C153.035 5.1596 152.491 4.92493 151.809 4.92493C151.115 4.92493 150.571 5.1596 150.177 5.62893C149.782 6.09826 149.585 6.70626 149.585 7.45293V7.50093H154.049ZM164.244 12.2529C162.59 12.2529 161.764 11.3196 161.764 9.45293V5.16493H160.5C160.393 5.16493 160.308 5.13293 160.244 5.06893C160.18 5.00493 160.148 4.9196 160.148 4.81293V4.30093C160.148 4.19426 160.18 4.10893 160.244 4.04493C160.308 3.97026 160.393 3.93293 160.5 3.93293H161.764V1.26093C161.764 1.15426 161.796 1.06893 161.86 1.00493C161.924 0.930263 162.009 0.892929 162.116 0.892929H162.82C162.926 0.892929 163.012 0.930263 163.076 1.00493C163.15 1.06893 163.188 1.15426 163.188 1.26093V3.93293H165.172C165.278 3.93293 165.364 3.97026 165.428 4.04493C165.502 4.10893 165.54 4.19426 165.54 4.30093V4.81293C165.54 4.9196 165.502 5.00493 165.428 5.06893C165.364 5.13293 165.278 5.16493 165.172 5.16493H163.188V9.34093C163.188 9.88493 163.273 10.2956 163.444 10.5729C163.625 10.8503 163.929 10.9889 164.356 10.9889H165.332C165.438 10.9889 165.524 11.0263 165.588 11.1009C165.652 11.1649 165.684 11.2503 165.684 11.3569V11.8849C165.684 11.9916 165.652 12.0823 165.588 12.1569C165.524 12.2209 165.438 12.2529 165.332 12.2529H164.244ZM170.623 12.4129C169.45 12.4129 168.543 12.0823 167.903 11.4209C167.274 10.7596 166.938 9.8796 166.895 8.78093L166.879 8.09293L166.895 7.40493C166.938 6.30626 167.279 5.42626 167.919 4.76493C168.57 4.1036 169.471 3.77293 170.623 3.77293C171.775 3.77293 172.671 4.1036 173.311 4.76493C173.962 5.42626 174.308 6.30626 174.351 7.40493C174.372 7.6396 174.383 7.86893 174.383 8.09293C174.383 8.31693 174.372 8.54626 174.351 8.78093C174.308 9.8796 173.967 10.7596 173.327 11.4209C172.698 12.0823 171.796 12.4129 170.623 12.4129ZM170.623 11.2129C171.306 11.2129 171.844 10.9996 172.239 10.5729C172.644 10.1356 172.863 9.5116 172.895 8.70093C172.906 8.59426 172.911 8.3916 172.911 8.09293C172.911 7.79426 172.906 7.5916 172.895 7.48493C172.863 6.67426 172.644 6.0556 172.239 5.62893C171.844 5.1916 171.306 4.97293 170.623 4.97293C169.94 4.97293 169.396 5.1916 168.991 5.62893C168.596 6.0556 168.383 6.67426 168.351 7.48493L168.335 8.09293L168.351 8.70093C168.383 9.5116 168.596 10.1356 168.991 10.5729C169.396 10.9996 169.94 11.2129 170.623 11.2129ZM183.197 12.2529C181.544 12.2529 180.717 11.3196 180.717 9.45293V5.16493H179.453C179.346 5.16493 179.261 5.13293 179.197 5.06893C179.133 5.00493 179.101 4.9196 179.101 4.81293V4.30093C179.101 4.19426 179.133 4.10893 179.197 4.04493C179.261 3.97026 179.346 3.93293 179.453 3.93293H180.717V1.26093C180.717 1.15426 180.749 1.06893 180.813 1.00493C180.877 0.930263 180.962 0.892929 181.069 0.892929H181.773C181.88 0.892929 181.965 0.930263 182.029 1.00493C182.104 1.06893 182.141 1.15426 182.141 1.26093V3.93293H184.125C184.232 3.93293 184.317 3.97026 184.381 4.04493C184.456 4.10893 184.493 4.19426 184.493 4.30093V4.81293C184.493 4.9196 184.456 5.00493 184.381 5.06893C184.317 5.13293 184.232 5.16493 184.125 5.16493H182.141V9.34093C182.141 9.88493 182.226 10.2956 182.397 10.5729C182.578 10.8503 182.882 10.9889 183.309 10.9889H184.285C184.392 10.9889 184.477 11.0263 184.541 11.1009C184.605 11.1649 184.637 11.2503 184.637 11.3569V11.8849C184.637 11.9916 184.605 12.0823 184.541 12.1569C184.477 12.2209 184.392 12.2529 184.285 12.2529H183.197ZM186.568 12.2529C186.461 12.2529 186.371 12.2209 186.296 12.1569C186.232 12.0823 186.2 11.9916 186.2 11.8849V4.31693C186.2 4.21026 186.232 4.1196 186.296 4.04493C186.371 3.97026 186.461 3.93293 186.568 3.93293H187.24C187.357 3.93293 187.448 3.97026 187.512 4.04493C187.587 4.10893 187.624 4.1996 187.624 4.31693V5.02093C188.061 4.2956 188.803 3.93293 189.848 3.93293H190.472C190.589 3.93293 190.68 3.96493 190.744 4.02893C190.808 4.09293 190.84 4.1836 190.84 4.30093V4.89293C190.84 4.9996 190.808 5.09026 190.744 5.16493C190.68 5.22893 190.589 5.26093 190.472 5.26093H189.56C188.973 5.26093 188.509 5.4316 188.168 5.77293C187.837 6.11426 187.672 6.57826 187.672 7.16493V11.8849C187.672 11.9916 187.635 12.0823 187.56 12.1569C187.485 12.2209 187.395 12.2529 187.288 12.2529H186.568ZM194.395 12.4129C193.872 12.4129 193.387 12.3063 192.939 12.0929C192.501 11.8796 192.149 11.5916 191.883 11.2289C191.627 10.8556 191.499 10.4449 191.499 9.99693C191.499 9.29293 191.787 8.71693 192.363 8.26893C192.939 7.82093 193.723 7.52226 194.715 7.37293L197.115 7.03693V6.57293C197.115 5.47426 196.48 4.92493 195.211 4.92493C194.72 4.92493 194.325 5.02626 194.027 5.22893C193.728 5.42093 193.509 5.65026 193.371 5.91693C193.328 6.0236 193.28 6.09826 193.227 6.14093C193.184 6.17293 193.12 6.18893 193.035 6.18893H192.411C192.315 6.18893 192.229 6.15693 192.155 6.09293C192.091 6.01826 192.059 5.93293 192.059 5.83693C192.059 5.5916 192.171 5.30893 192.395 4.98893C192.629 4.65826 192.987 4.3756 193.467 4.14093C193.947 3.8956 194.533 3.77293 195.227 3.77293C196.421 3.77293 197.275 4.05026 197.787 4.60493C198.309 5.1596 198.571 5.85293 198.571 6.68493V11.8849C198.571 11.9916 198.533 12.0823 198.459 12.1569C198.395 12.2209 198.309 12.2529 198.203 12.2529H197.499C197.392 12.2529 197.307 12.2209 197.243 12.1569C197.179 12.0823 197.147 11.9916 197.147 11.8849V11.1809C196.912 11.5329 196.571 11.8263 196.123 12.0609C195.675 12.2956 195.099 12.4129 194.395 12.4129ZM194.715 11.2449C195.419 11.2449 195.995 11.0156 196.443 10.5569C196.891 10.0983 197.115 9.4316 197.115 8.55693V8.10893L195.243 8.38093C194.475 8.4876 193.893 8.66893 193.499 8.92493C193.104 9.18093 192.907 9.50093 192.907 9.88493C192.907 10.3223 193.083 10.6583 193.435 10.8929C193.797 11.1276 194.224 11.2449 194.715 11.2449ZM203.627 12.2529C203.35 12.2529 203.153 12.1196 203.035 11.8529L200.059 4.42893C200.049 4.39693 200.043 4.3436 200.043 4.26893C200.043 4.17293 200.075 4.09293 200.139 4.02893C200.203 3.96493 200.278 3.93293 200.363 3.93293H201.099C201.27 3.93293 201.398 4.01826 201.483 4.18893L203.947 10.5729L206.411 4.18893C206.433 4.12493 206.475 4.06626 206.539 4.01293C206.614 3.9596 206.699 3.93293 206.795 3.93293H207.531C207.617 3.93293 207.691 3.96493 207.755 4.02893C207.819 4.09293 207.851 4.17293 207.851 4.26893L207.819 4.42893L204.859 11.8529C204.742 12.1196 204.545 12.2529 204.267 12.2529H203.627ZM212.559 12.4129C211.471 12.4129 210.601 12.0769 209.951 11.4049C209.3 10.7223 208.943 9.79426 208.879 8.62093L208.863 8.07693L208.879 7.54893C208.943 6.39693 209.3 5.4796 209.951 4.79693C210.601 4.11426 211.471 3.77293 212.559 3.77293C213.732 3.77293 214.639 4.14626 215.279 4.89293C215.929 5.6396 216.255 6.65293 216.255 7.93293V8.22093C216.255 8.3276 216.217 8.41826 216.142 8.49293C216.079 8.55693 215.993 8.58893 215.887 8.58893H210.335V8.73293C210.367 9.42626 210.58 10.0183 210.975 10.5089C211.369 10.9996 211.892 11.2449 212.543 11.2449C213.044 11.2449 213.449 11.1489 213.759 10.9569C214.079 10.7543 214.319 10.5463 214.479 10.3329C214.575 10.2049 214.649 10.1303 214.703 10.1089C214.756 10.0769 214.847 10.0609 214.975 10.0609H215.679C215.775 10.0609 215.855 10.0876 215.919 10.1409C215.993 10.1943 216.031 10.2636 216.031 10.3489C216.031 10.5836 215.887 10.8663 215.599 11.1969C215.311 11.5276 214.9 11.8156 214.367 12.0609C213.844 12.2956 213.241 12.4129 212.559 12.4129ZM214.799 7.50093V7.45293C214.799 6.70626 214.596 6.09826 214.191 5.62893C213.785 5.1596 213.241 4.92493 212.559 4.92493C211.865 4.92493 211.321 5.1596 210.927 5.62893C210.532 6.09826 210.335 6.70626 210.335 7.45293V7.50093H214.799ZM218.584 12.2529C218.477 12.2529 218.387 12.2209 218.312 12.1569C218.248 12.0823 218.216 11.9916 218.216 11.8849V1.26093C218.216 1.1436 218.248 1.05293 218.312 0.988929C218.387 0.924929 218.477 0.892929 218.584 0.892929H219.288C219.395 0.892929 219.48 0.930263 219.544 1.00493C219.619 1.06893 219.656 1.15426 219.656 1.26093V11.8849C219.656 11.9916 219.619 12.0823 219.544 12.1569C219.48 12.2209 219.395 12.2529 219.288 12.2529H218.584ZM226.9 12.2529C226.793 12.2529 226.703 12.2209 226.628 12.1569C226.564 12.0823 226.532 11.9916 226.532 11.8849V5.16493H225.156C225.049 5.16493 224.959 5.13293 224.884 5.06893C224.82 5.00493 224.788 4.9196 224.788 4.81293V4.30093C224.788 4.19426 224.82 4.10893 224.884 4.04493C224.959 3.97026 225.049 3.93293 225.156 3.93293H226.532V3.13293C226.532 2.26893 226.74 1.60226 227.156 1.13293C227.583 0.652929 228.276 0.41293 229.236 0.41293H230.18C230.287 0.41293 230.372 0.450263 230.436 0.524929C230.511 0.588929 230.548 0.674262 230.548 0.78093V1.29293C230.548 1.3996 230.511 1.48493 230.436 1.54893C230.372 1.61293 230.287 1.64493 230.18 1.64493H229.268C228.777 1.64493 228.436 1.77293 228.244 2.02893C228.052 2.28493 227.956 2.6796 227.956 3.21293V3.93293H230.02C230.127 3.93293 230.212 3.97026 230.276 4.04493C230.351 4.10893 230.388 4.19426 230.388 4.30093V4.81293C230.388 4.9196 230.351 5.00493 230.276 5.06893C230.212 5.13293 230.127 5.16493 230.02 5.16493H227.956V11.8849C227.956 11.9916 227.919 12.0823 227.844 12.1569C227.78 12.2209 227.695 12.2529 227.588 12.2529H226.9ZM234.004 12.4129C233.481 12.4129 232.996 12.3063 232.548 12.0929C232.111 11.8796 231.759 11.5916 231.492 11.2289C231.236 10.8556 231.108 10.4449 231.108 9.99693C231.108 9.29293 231.396 8.71693 231.972 8.26893C232.548 7.82093 233.332 7.52226 234.324 7.37293L236.724 7.03693V6.57293C236.724 5.47426 236.089 4.92493 234.82 4.92493C234.329 4.92493 233.935 5.02626 233.636 5.22893C233.337 5.42093 233.119 5.65026 232.98 5.91693C232.937 6.0236 232.889 6.09826 232.836 6.14093C232.793 6.17293 232.729 6.18893 232.644 6.18893H232.02C231.924 6.18893 231.839 6.15693 231.764 6.09293C231.7 6.01826 231.668 5.93293 231.668 5.83693C231.668 5.5916 231.78 5.30893 232.004 4.98893C232.239 4.65826 232.596 4.3756 233.076 4.14093C233.556 3.8956 234.143 3.77293 234.836 3.77293C236.031 3.77293 236.884 4.05026 237.396 4.60493C237.919 5.1596 238.18 5.85293 238.18 6.68493V11.8849C238.18 11.9916 238.143 12.0823 238.068 12.1569C238.004 12.2209 237.919 12.2529 237.812 12.2529H237.108C237.001 12.2529 236.916 12.2209 236.852 12.1569C236.788 12.0823 236.756 11.9916 236.756 11.8849V11.1809C236.521 11.5329 236.18 11.8263 235.732 12.0609C235.284 12.2956 234.708 12.4129 234.004 12.4129ZM234.324 11.2449C235.028 11.2449 235.604 11.0156 236.052 10.5569C236.5 10.0983 236.724 9.4316 236.724 8.55693V8.10893L234.852 8.38093C234.084 8.4876 233.503 8.66893 233.108 8.92493C232.713 9.18093 232.516 9.50093 232.516 9.88493C232.516 10.3223 232.692 10.6583 233.044 10.8929C233.407 11.1276 233.833 11.2449 234.324 11.2449ZM240.865 12.2529C240.758 12.2529 240.668 12.2209 240.593 12.1569C240.529 12.0823 240.497 11.9916 240.497 11.8849V4.31693C240.497 4.21026 240.529 4.1196 240.593 4.04493C240.668 3.97026 240.758 3.93293 240.865 3.93293H241.537C241.654 3.93293 241.745 3.97026 241.809 4.04493C241.884 4.10893 241.921 4.1996 241.921 4.31693V5.02093C242.358 4.2956 243.1 3.93293 244.145 3.93293H244.769C244.886 3.93293 244.977 3.96493 245.041 4.02893C245.105 4.09293 245.137 4.1836 245.137 4.30093V4.89293C245.137 4.9996 245.105 5.09026 245.041 5.16493C244.977 5.22893 244.886 5.26093 244.769 5.26093H243.857C243.27 5.26093 242.806 5.4316 242.465 5.77293C242.134 6.11426 241.969 6.57826 241.969 7.16493V11.8849C241.969 11.9916 241.932 12.0823 241.857 12.1569C241.782 12.2209 241.692 12.2529 241.585 12.2529H240.865ZM252.379 12.4129C251.856 12.4129 251.371 12.3063 250.923 12.0929C250.486 11.8796 250.134 11.5916 249.867 11.2289C249.611 10.8556 249.483 10.4449 249.483 9.99693C249.483 9.29293 249.771 8.71693 250.347 8.26893C250.923 7.82093 251.707 7.52226 252.699 7.37293L255.099 7.03693V6.57293C255.099 5.47426 254.464 4.92493 253.195 4.92493C252.704 4.92493 252.31 5.02626 252.011 5.22893C251.712 5.42093 251.494 5.65026 251.355 5.91693C251.312 6.0236 251.264 6.09826 251.211 6.14093C251.168 6.17293 251.104 6.18893 251.019 6.18893H250.395C250.299 6.18893 250.214 6.15693 250.139 6.09293C250.075 6.01826 250.043 5.93293 250.043 5.83693C250.043 5.5916 250.155 5.30893 250.379 4.98893C250.614 4.65826 250.971 4.3756 251.451 4.14093C251.931 3.8956 252.518 3.77293 253.211 3.77293C254.406 3.77293 255.259 4.05026 255.771 4.60493C256.294 5.1596 256.555 5.85293 256.555 6.68493V11.8849C256.555 11.9916 256.518 12.0823 256.443 12.1569C256.379 12.2209 256.294 12.2529 256.187 12.2529H255.483C255.376 12.2529 255.291 12.2209 255.227 12.1569C255.163 12.0823 255.131 11.9916 255.131 11.8849V11.1809C254.896 11.5329 254.555 11.8263 254.107 12.0609C253.659 12.2956 253.083 12.4129 252.379 12.4129ZM252.699 11.2449C253.403 11.2449 253.979 11.0156 254.427 10.5569C254.875 10.0983 255.099 9.4316 255.099 8.55693V8.10893L253.227 8.38093C252.459 8.4876 251.878 8.66893 251.483 8.92493C251.088 9.18093 250.891 9.50093 250.891 9.88493C250.891 10.3223 251.067 10.6583 251.419 10.8929C251.782 11.1276 252.208 11.2449 252.699 11.2449ZM259.24 12.2529C259.133 12.2529 259.043 12.2209 258.968 12.1569C258.904 12.0823 258.872 11.9916 258.872 11.8849V4.30093C258.872 4.19426 258.904 4.10893 258.968 4.04493C259.043 3.97026 259.133 3.93293 259.24 3.93293H259.928C260.045 3.93293 260.136 3.96493 260.2 4.02893C260.264 4.09293 260.296 4.1836 260.296 4.30093V5.00493C260.616 4.61026 260.984 4.30626 261.4 4.09293C261.827 3.8796 262.355 3.77293 262.984 3.77293C264.008 3.77293 264.803 4.1036 265.368 4.76493C265.933 5.4156 266.216 6.2796 266.216 7.35693V11.8849C266.216 11.9916 266.179 12.0823 266.104 12.1569C266.04 12.2209 265.955 12.2529 265.848 12.2529H265.112C265.005 12.2529 264.915 12.2209 264.84 12.1569C264.776 12.0823 264.744 11.9916 264.744 11.8849V7.45293C264.744 6.68493 264.557 6.0876 264.184 5.66093C263.811 5.23426 263.277 5.02093 262.584 5.02093C261.901 5.02093 261.357 5.2396 260.952 5.67693C260.547 6.1036 260.344 6.6956 260.344 7.45293V11.8849C260.344 11.9916 260.307 12.0823 260.232 12.1569C260.168 12.2209 260.083 12.2529 259.976 12.2529H259.24ZM271.568 12.4129C270.448 12.4129 269.605 12.0503 269.04 11.3249C268.485 10.5996 268.187 9.68226 268.144 8.57293L268.128 8.09293L268.144 7.61293C268.187 6.51426 268.491 5.60226 269.056 4.87693C269.621 4.14093 270.459 3.77293 271.568 3.77293C272.677 3.77293 273.541 4.1676 274.16 4.95693V1.26093C274.16 1.15426 274.192 1.06893 274.256 1.00493C274.331 0.930263 274.421 0.892929 274.528 0.892929H275.248C275.355 0.892929 275.44 0.930263 275.504 1.00493C275.579 1.06893 275.616 1.15426 275.616 1.26093V11.8849C275.616 11.9916 275.579 12.0823 275.504 12.1569C275.44 12.2209 275.355 12.2529 275.248 12.2529H274.56C274.453 12.2529 274.368 12.2209 274.304 12.1569C274.24 12.0823 274.208 11.9916 274.208 11.8849V11.1969C273.6 12.0076 272.72 12.4129 271.568 12.4129ZM271.872 11.1649C272.619 11.1649 273.179 10.9196 273.552 10.4289C273.925 9.9276 274.128 9.3356 274.16 8.65293C274.171 8.5356 274.176 8.33293 274.176 8.04493C274.176 7.74626 274.171 7.53826 274.16 7.42093C274.139 6.77026 273.931 6.21026 273.536 5.74093C273.152 5.26093 272.597 5.02093 271.872 5.02093C271.104 5.02093 270.544 5.26093 270.192 5.74093C269.84 6.22093 269.648 6.85026 269.616 7.62893L269.6 8.09293C269.6 10.1409 270.357 11.1649 271.872 11.1649ZM284.814 12.4129C284.078 12.4129 283.454 12.2956 282.942 12.0609C282.44 11.8156 282.067 11.5383 281.822 11.2289C281.576 10.9196 281.454 10.6636 281.454 10.4609C281.454 10.3543 281.491 10.2743 281.566 10.2209C281.64 10.1569 281.72 10.1249 281.806 10.1249H282.478C282.542 10.1249 282.59 10.1356 282.622 10.1569C282.664 10.1783 282.718 10.2263 282.782 10.3009C283.027 10.5996 283.299 10.8343 283.598 11.0049C283.907 11.1756 284.318 11.2609 284.83 11.2609C285.406 11.2609 285.864 11.1543 286.206 10.9409C286.558 10.7276 286.734 10.4183 286.734 10.0129C286.734 9.74626 286.659 9.53293 286.51 9.37293C286.36 9.21293 286.11 9.06893 285.758 8.94093C285.416 8.81293 284.904 8.67426 284.222 8.52493C283.294 8.32226 282.638 8.02893 282.254 7.64493C281.87 7.26093 281.678 6.76493 281.678 6.15693C281.678 5.76226 281.795 5.3836 282.03 5.02093C282.264 4.6476 282.611 4.34893 283.07 4.12493C283.539 3.89026 284.094 3.77293 284.734 3.77293C285.406 3.77293 285.976 3.88493 286.446 4.10893C286.926 4.33293 287.283 4.59426 287.518 4.89293C287.763 5.1916 287.886 5.44226 287.886 5.64493C287.886 5.74093 287.848 5.82093 287.774 5.88493C287.71 5.94893 287.63 5.98093 287.534 5.98093H286.926C286.776 5.98093 286.67 5.92226 286.606 5.80493C286.424 5.60226 286.27 5.4476 286.142 5.34093C286.024 5.2236 285.848 5.1276 285.614 5.05293C285.379 4.9676 285.086 4.92493 284.734 4.92493C284.211 4.92493 283.811 5.03693 283.534 5.26093C283.256 5.47426 283.118 5.76226 283.118 6.12493C283.118 6.34893 283.176 6.54093 283.294 6.70093C283.411 6.85026 283.635 6.99426 283.966 7.13293C284.296 7.26093 284.787 7.39426 285.438 7.53293C286.451 7.74626 287.166 8.05026 287.582 8.44493C288.008 8.8396 288.222 9.34626 288.222 9.96493C288.222 10.4236 288.088 10.8396 287.822 11.2129C287.566 11.5863 287.176 11.8796 286.654 12.0929C286.142 12.3063 285.528 12.4129 284.814 12.4129ZM293.275 12.2529C291.622 12.2529 290.795 11.3196 290.795 9.45293V5.16493H289.531C289.424 5.16493 289.339 5.13293 289.275 5.06893C289.211 5.00493 289.179 4.9196 289.179 4.81293V4.30093C289.179 4.19426 289.211 4.10893 289.275 4.04493C289.339 3.97026 289.424 3.93293 289.531 3.93293H290.795V1.26093C290.795 1.15426 290.827 1.06893 290.891 1.00493C290.955 0.930263 291.04 0.892929 291.147 0.892929H291.851C291.958 0.892929 292.043 0.930263 292.107 1.00493C292.182 1.06893 292.219 1.15426 292.219 1.26093V3.93293H294.203C294.31 3.93293 294.395 3.97026 294.459 4.04493C294.534 4.10893 294.571 4.19426 294.571 4.30093V4.81293C294.571 4.9196 294.534 5.00493 294.459 5.06893C294.395 5.13293 294.31 5.16493 294.203 5.16493H292.219V9.34093C292.219 9.88493 292.304 10.2956 292.475 10.5729C292.656 10.8503 292.96 10.9889 293.387 10.9889H294.363C294.47 10.9889 294.555 11.0263 294.619 11.1009C294.683 11.1649 294.715 11.2503 294.715 11.3569V11.8849C294.715 11.9916 294.683 12.0823 294.619 12.1569C294.555 12.2209 294.47 12.2529 294.363 12.2529H293.275ZM296.518 2.36493C296.411 2.36493 296.321 2.33293 296.246 2.26893C296.182 2.19426 296.15 2.1036 296.15 1.99693V1.16493C296.15 1.05826 296.182 0.967596 296.246 0.892929C296.321 0.818263 296.411 0.78093 296.518 0.78093H297.462C297.569 0.78093 297.659 0.818263 297.734 0.892929C297.809 0.967596 297.846 1.05826 297.846 1.16493V1.99693C297.846 2.1036 297.809 2.19426 297.734 2.26893C297.659 2.33293 297.569 2.36493 297.462 2.36493H296.518ZM296.646 12.2529C296.539 12.2529 296.449 12.2209 296.374 12.1569C296.31 12.0823 296.278 11.9916 296.278 11.8849V4.30093C296.278 4.19426 296.31 4.10893 296.374 4.04493C296.449 3.97026 296.539 3.93293 296.646 3.93293H297.35C297.457 3.93293 297.542 3.97026 297.606 4.04493C297.681 4.10893 297.718 4.19426 297.718 4.30093V11.8849C297.718 11.9916 297.681 12.0823 297.606 12.1569C297.542 12.2209 297.457 12.2529 297.35 12.2529H296.646ZM300.506 12.2529C300.399 12.2529 300.309 12.2209 300.234 12.1569C300.17 12.0823 300.138 11.9916 300.138 11.8849V1.26093C300.138 1.1436 300.17 1.05293 300.234 0.988929C300.309 0.924929 300.399 0.892929 300.506 0.892929H301.21C301.317 0.892929 301.402 0.930263 301.466 1.00493C301.541 1.06893 301.578 1.15426 301.578 1.26093V11.8849C301.578 11.9916 301.541 12.0823 301.466 12.1569C301.402 12.2209 301.317 12.2529 301.21 12.2529H300.506ZM304.365 12.2529C304.259 12.2529 304.168 12.2209 304.093 12.1569C304.029 12.0823 303.997 11.9916 303.997 11.8849V1.26093C303.997 1.1436 304.029 1.05293 304.093 0.988929C304.168 0.924929 304.259 0.892929 304.365 0.892929H305.069C305.176 0.892929 305.261 0.930263 305.325 1.00493C305.4 1.06893 305.437 1.15426 305.437 1.26093V11.8849C305.437 11.9916 305.4 12.0823 305.325 12.1569C305.261 12.2209 305.176 12.2529 305.069 12.2529H304.365ZM315.106 12.4129C313.965 12.4129 313.074 12.0929 312.434 11.4529C311.794 10.8023 311.458 9.8956 311.426 8.73293L311.41 8.09293L311.426 7.45293C311.458 6.29026 311.794 5.38893 312.434 4.74893C313.074 4.09826 313.965 3.77293 315.106 3.77293C315.874 3.77293 316.519 3.9116 317.042 4.18893C317.575 4.4556 317.97 4.7916 318.226 5.19693C318.493 5.60226 318.637 6.0076 318.658 6.41293C318.669 6.50893 318.631 6.59426 318.546 6.66893C318.471 6.7436 318.386 6.78093 318.29 6.78093H317.586C317.479 6.78093 317.399 6.7596 317.346 6.71693C317.293 6.6636 317.239 6.57293 317.186 6.44493C316.994 5.92226 316.727 5.55426 316.386 5.34093C316.055 5.11693 315.634 5.00493 315.122 5.00493C314.45 5.00493 313.917 5.21293 313.522 5.62893C313.127 6.04493 312.914 6.6796 312.882 7.53293L312.866 8.09293L312.882 8.65293C312.914 9.50626 313.127 10.1409 313.522 10.5569C313.917 10.9729 314.45 11.1809 315.122 11.1809C315.645 11.1809 316.071 11.0743 316.402 10.8609C316.733 10.6369 316.994 10.2636 317.186 9.74093C317.239 9.61293 317.293 9.5276 317.346 9.48493C317.399 9.4316 317.479 9.40493 317.586 9.40493H318.29C318.386 9.40493 318.471 9.44226 318.546 9.51693C318.631 9.5916 318.669 9.67693 318.658 9.77293C318.637 10.1676 318.493 10.5676 318.226 10.9729C317.97 11.3783 317.575 11.7196 317.042 11.9969C316.519 12.2743 315.874 12.4129 315.106 12.4129ZM322.879 12.4129C322.356 12.4129 321.871 12.3063 321.423 12.0929C320.986 11.8796 320.634 11.5916 320.367 11.2289C320.111 10.8556 319.983 10.4449 319.983 9.99693C319.983 9.29293 320.271 8.71693 320.847 8.26893C321.423 7.82093 322.207 7.52226 323.199 7.37293L325.599 7.03693V6.57293C325.599 5.47426 324.964 4.92493 323.695 4.92493C323.204 4.92493 322.81 5.02626 322.511 5.22893C322.212 5.42093 321.994 5.65026 321.855 5.91693C321.812 6.0236 321.764 6.09826 321.711 6.14093C321.668 6.17293 321.604 6.18893 321.519 6.18893H320.895C320.799 6.18893 320.714 6.15693 320.639 6.09293C320.575 6.01826 320.543 5.93293 320.543 5.83693C320.543 5.5916 320.655 5.30893 320.879 4.98893C321.114 4.65826 321.471 4.3756 321.951 4.14093C322.431 3.8956 323.018 3.77293 323.711 3.77293C324.906 3.77293 325.759 4.05026 326.271 4.60493C326.794 5.1596 327.055 5.85293 327.055 6.68493V11.8849C327.055 11.9916 327.018 12.0823 326.943 12.1569C326.879 12.2209 326.794 12.2529 326.687 12.2529H325.983C325.876 12.2529 325.791 12.2209 325.727 12.1569C325.663 12.0823 325.631 11.9916 325.631 11.8849V11.1809C325.396 11.5329 325.055 11.8263 324.607 12.0609C324.159 12.2956 323.583 12.4129 322.879 12.4129ZM323.199 11.2449C323.903 11.2449 324.479 11.0156 324.927 10.5569C325.375 10.0983 325.599 9.4316 325.599 8.55693V8.10893L323.727 8.38093C322.959 8.4876 322.378 8.66893 321.983 8.92493C321.588 9.18093 321.391 9.50093 321.391 9.88493C321.391 10.3223 321.567 10.6583 321.919 10.8929C322.282 11.1276 322.708 11.2449 323.199 11.2449ZM329.74 12.2529C329.633 12.2529 329.543 12.2209 329.468 12.1569C329.404 12.0823 329.372 11.9916 329.372 11.8849V4.30093C329.372 4.19426 329.404 4.10893 329.468 4.04493C329.543 3.97026 329.633 3.93293 329.74 3.93293H330.428C330.545 3.93293 330.636 3.96493 330.7 4.02893C330.764 4.09293 330.796 4.1836 330.796 4.30093V5.00493C331.116 4.61026 331.484 4.30626 331.9 4.09293C332.327 3.8796 332.855 3.77293 333.484 3.77293C334.508 3.77293 335.303 4.1036 335.868 4.76493C336.433 5.4156 336.716 6.2796 336.716 7.35693V11.8849C336.716 11.9916 336.679 12.0823 336.604 12.1569C336.54 12.2209 336.455 12.2529 336.348 12.2529H335.612C335.505 12.2529 335.415 12.2209 335.34 12.1569C335.276 12.0823 335.244 11.9916 335.244 11.8849V7.45293C335.244 6.68493 335.057 6.0876 334.684 5.66093C334.311 5.23426 333.777 5.02093 333.084 5.02093C332.401 5.02093 331.857 5.2396 331.452 5.67693C331.047 6.1036 330.844 6.6956 330.844 7.45293V11.8849C330.844 11.9916 330.807 12.0823 330.732 12.1569C330.668 12.2209 330.583 12.2529 330.476 12.2529H329.74ZM4.528 42.4129C3.38667 42.4129 2.496 42.0929 1.856 41.4529C1.216 40.8023 0.88 39.8956 0.848 38.7329L0.832 38.0929L0.848 37.4529C0.88 36.2903 1.216 35.3889 1.856 34.7489C2.496 34.0983 3.38667 33.7729 4.528 33.7729C5.296 33.7729 5.94133 33.9116 6.464 34.1889C6.99733 34.4556 7.392 34.7916 7.648 35.1969C7.91467 35.6023 8.05867 36.0076 8.08 36.4129C8.09067 36.5089 8.05333 36.5943 7.968 36.6689C7.89333 36.7436 7.808 36.7809 7.712 36.7809H7.008C6.90133 36.7809 6.82133 36.7596 6.768 36.7169C6.71467 36.6636 6.66133 36.5729 6.608 36.4449C6.416 35.9223 6.14933 35.5543 5.808 35.3409C5.47733 35.1169 5.056 35.0049 4.544 35.0049C3.872 35.0049 3.33867 35.2129 2.944 35.6289C2.54933 36.0449 2.336 36.6796 2.304 37.5329L2.288 38.0929L2.304 38.6529C2.336 39.5063 2.54933 40.1409 2.944 40.5569C3.33867 40.9729 3.872 41.1809 4.544 41.1809C5.06667 41.1809 5.49333 41.0743 5.824 40.8609C6.15467 40.6369 6.416 40.2636 6.608 39.7409C6.66133 39.6129 6.71467 39.5276 6.768 39.4849C6.82133 39.4316 6.90133 39.4049 7.008 39.4049H7.712C7.808 39.4049 7.89333 39.4423 7.968 39.5169C8.05333 39.5916 8.09067 39.6769 8.08 39.7729C8.05867 40.1676 7.91467 40.5676 7.648 40.9729C7.392 41.3783 6.99733 41.7196 6.464 41.9969C5.94133 42.2743 5.296 42.4129 4.528 42.4129ZM13.3729 42.4129C12.1995 42.4129 11.2929 42.0823 10.6529 41.4209C10.0235 40.7596 9.68754 39.8796 9.64488 38.7809L9.62888 38.0929L9.64488 37.4049C9.68754 36.3063 10.0289 35.4263 10.6689 34.7649C11.3195 34.1036 12.2209 33.7729 13.3729 33.7729C14.5249 33.7729 15.4209 34.1036 16.0609 34.7649C16.7115 35.4263 17.0582 36.3063 17.1009 37.4049C17.1222 37.6396 17.1329 37.8689 17.1329 38.0929C17.1329 38.3169 17.1222 38.5463 17.1009 38.7809C17.0582 39.8796 16.7169 40.7596 16.0769 41.4209C15.4475 42.0823 14.5462 42.4129 13.3729 42.4129ZM13.3729 41.2129C14.0555 41.2129 14.5942 40.9996 14.9889 40.5729C15.3942 40.1356 15.6129 39.5116 15.6449 38.7009C15.6555 38.5943 15.6609 38.3916 15.6609 38.0929C15.6609 37.7943 15.6555 37.5916 15.6449 37.4849C15.6129 36.6743 15.3942 36.0556 14.9889 35.6289C14.5942 35.1916 14.0555 34.9729 13.3729 34.9729C12.6902 34.9729 12.1462 35.1916 11.7409 35.6289C11.3462 36.0556 11.1329 36.6743 11.1009 37.4849L11.0849 38.0929L11.1009 38.7009C11.1329 39.5116 11.3462 40.1356 11.7409 40.5729C12.1462 40.9996 12.6902 41.2129 13.3729 41.2129ZM19.5211 42.2529C19.4145 42.2529 19.3238 42.2209 19.2491 42.1569C19.1851 42.0823 19.1531 41.9916 19.1531 41.8849V34.3009C19.1531 34.1943 19.1851 34.1089 19.2491 34.0449C19.3238 33.9703 19.4145 33.9329 19.5211 33.9329H20.2091C20.3265 33.9329 20.4171 33.9649 20.4811 34.0289C20.5451 34.0929 20.5771 34.1836 20.5771 34.3009V35.0049C20.8971 34.6103 21.2651 34.3063 21.6811 34.0929C22.1078 33.8796 22.6358 33.7729 23.2651 33.7729C24.2891 33.7729 25.0838 34.1036 25.6491 34.7649C26.2145 35.4156 26.4971 36.2796 26.4971 37.3569V41.8849C26.4971 41.9916 26.4598 42.0823 26.3851 42.1569C26.3211 42.2209 26.2358 42.2529 26.1291 42.2529H25.3931C25.2865 42.2529 25.1958 42.2209 25.1211 42.1569C25.0571 42.0823 25.0251 41.9916 25.0251 41.8849V37.4529C25.0251 36.6849 24.8385 36.0876 24.4651 35.6609C24.0918 35.2343 23.5585 35.0209 22.8651 35.0209C22.1825 35.0209 21.6385 35.2396 21.2331 35.6769C20.8278 36.1036 20.6251 36.6956 20.6251 37.4529V41.8849C20.6251 41.9916 20.5878 42.0823 20.5131 42.1569C20.4491 42.2209 20.3638 42.2529 20.2571 42.2529H19.5211ZM29.1774 42.2529C29.0707 42.2529 28.98 42.2209 28.9054 42.1569C28.8414 42.0823 28.8094 41.9916 28.8094 41.8849V34.3009C28.8094 34.1943 28.8414 34.1089 28.9054 34.0449C28.98 33.9703 29.0707 33.9329 29.1774 33.9329H29.8654C29.9827 33.9329 30.0734 33.9649 30.1374 34.0289C30.2014 34.0929 30.2334 34.1836 30.2334 34.3009V35.0049C30.5534 34.6103 30.9214 34.3063 31.3374 34.0929C31.764 33.8796 32.292 33.7729 32.9214 33.7729C33.9454 33.7729 34.74 34.1036 35.3054 34.7649C35.8707 35.4156 36.1534 36.2796 36.1534 37.3569V41.8849C36.1534 41.9916 36.116 42.0823 36.0414 42.1569C35.9774 42.2209 35.892 42.2529 35.7854 42.2529H35.0494C34.9427 42.2529 34.852 42.2209 34.7774 42.1569C34.7134 42.0823 34.6814 41.9916 34.6814 41.8849V37.4529C34.6814 36.6849 34.4947 36.0876 34.1214 35.6609C33.748 35.2343 33.2147 35.0209 32.5214 35.0209C31.8387 35.0209 31.2947 35.2396 30.8894 35.6769C30.484 36.1036 30.2814 36.6956 30.2814 37.4529V41.8849C30.2814 41.9916 30.244 42.0823 30.1694 42.1569C30.1054 42.2209 30.02 42.2529 29.9134 42.2529H29.1774ZM41.7616 42.4129C40.6736 42.4129 39.8043 42.0769 39.1536 41.4049C38.503 40.7223 38.1456 39.7943 38.0816 38.6209L38.0656 38.0769L38.0816 37.5489C38.1456 36.3969 38.503 35.4796 39.1536 34.7969C39.8043 34.1143 40.6736 33.7729 41.7616 33.7729C42.935 33.7729 43.8416 34.1463 44.4816 34.8929C45.1323 35.6396 45.4576 36.6529 45.4576 37.9329V38.2209C45.4576 38.3276 45.4203 38.4183 45.3456 38.4929C45.2816 38.5569 45.1963 38.5889 45.0896 38.5889H39.5376V38.7329C39.5696 39.4263 39.783 40.0183 40.1776 40.5089C40.5723 40.9996 41.095 41.2449 41.7456 41.2449C42.247 41.2449 42.6523 41.1489 42.9616 40.9569C43.2816 40.7543 43.5216 40.5463 43.6816 40.3329C43.7776 40.2049 43.8523 40.1303 43.9056 40.1089C43.959 40.0769 44.0496 40.0609 44.1776 40.0609H44.8816C44.9776 40.0609 45.0576 40.0876 45.1216 40.1409C45.1963 40.1943 45.2336 40.2636 45.2336 40.3489C45.2336 40.5836 45.0896 40.8663 44.8016 41.1969C44.5136 41.5276 44.103 41.8156 43.5696 42.0609C43.047 42.2956 42.4443 42.4129 41.7616 42.4129ZM44.0016 37.5009V37.4529C44.0016 36.7063 43.799 36.0983 43.3936 35.6289C42.9883 35.1596 42.4443 34.9249 41.7616 34.9249C41.0683 34.9249 40.5243 35.1596 40.1296 35.6289C39.735 36.0983 39.5376 36.7063 39.5376 37.4529V37.5009H44.0016ZM50.7311 42.4129C49.5898 42.4129 48.6991 42.0929 48.0591 41.4529C47.4191 40.8023 47.0831 39.8956 47.0511 38.7329L47.0351 38.0929L47.0511 37.4529C47.0831 36.2903 47.4191 35.3889 48.0591 34.7489C48.6991 34.0983 49.5898 33.7729 50.7311 33.7729C51.4991 33.7729 52.1445 33.9116 52.6671 34.1889C53.2005 34.4556 53.5951 34.7916 53.8511 35.1969C54.1178 35.6023 54.2618 36.0076 54.2831 36.4129C54.2938 36.5089 54.2565 36.5943 54.1711 36.6689C54.0965 36.7436 54.0111 36.7809 53.9151 36.7809H53.2111C53.1045 36.7809 53.0245 36.7596 52.9711 36.7169C52.9178 36.6636 52.8645 36.5729 52.8111 36.4449C52.6191 35.9223 52.3525 35.5543 52.0111 35.3409C51.6805 35.1169 51.2591 35.0049 50.7471 35.0049C50.0751 35.0049 49.5418 35.2129 49.1471 35.6289C48.7525 36.0449 48.5391 36.6796 48.5071 37.5329L48.4911 38.0929L48.5071 38.6529C48.5391 39.5063 48.7525 40.1409 49.1471 40.5569C49.5418 40.9729 50.0751 41.1809 50.7471 41.1809C51.2698 41.1809 51.6965 41.0743 52.0271 40.8609C52.3578 40.6369 52.6191 40.2636 52.8111 39.7409C52.8645 39.6129 52.9178 39.5276 52.9711 39.4849C53.0245 39.4316 53.1045 39.4049 53.2111 39.4049H53.9151C54.0111 39.4049 54.0965 39.4423 54.1711 39.5169C54.2565 39.5916 54.2938 39.6769 54.2831 39.7729C54.2618 40.1676 54.1178 40.5676 53.8511 40.9729C53.5951 41.3783 53.2005 41.7196 52.6671 41.9969C52.1445 42.2743 51.4991 42.4129 50.7311 42.4129ZM59.4 42.2529C57.7467 42.2529 56.92 41.3196 56.92 39.4529V35.1649H55.656C55.5493 35.1649 55.464 35.1329 55.4 35.0689C55.336 35.0049 55.304 34.9196 55.304 34.8129V34.3009C55.304 34.1943 55.336 34.1089 55.4 34.0449C55.464 33.9703 55.5493 33.9329 55.656 33.9329H56.92V31.2609C56.92 31.1543 56.952 31.0689 57.016 31.0049C57.08 30.9303 57.1653 30.8929 57.272 30.8929H57.976C58.0827 30.8929 58.168 30.9303 58.232 31.0049C58.3067 31.0689 58.344 31.1543 58.344 31.2609V33.9329H60.328C60.4347 33.9329 60.52 33.9703 60.584 34.0449C60.6587 34.1089 60.696 34.1943 60.696 34.3009V34.8129C60.696 34.9196 60.6587 35.0049 60.584 35.0689C60.52 35.1329 60.4347 35.1649 60.328 35.1649H58.344V39.3409C58.344 39.8849 58.4293 40.2956 58.6 40.5729C58.7813 40.8503 59.0853 40.9889 59.512 40.9889H60.488C60.5947 40.9889 60.68 41.0263 60.744 41.1009C60.808 41.1649 60.84 41.2503 60.84 41.3569V41.8849C60.84 41.9916 60.808 42.0823 60.744 42.1569C60.68 42.2209 60.5947 42.2529 60.488 42.2529H59.4ZM68.1736 42.2529C68.0243 42.2529 67.9123 42.2209 67.8376 42.1569C67.763 42.0929 67.7043 41.9916 67.6616 41.8529L65.3896 34.4289L65.3576 34.2689C65.3576 34.1729 65.3896 34.0929 65.4536 34.0289C65.5176 33.9649 65.5976 33.9329 65.6936 33.9329H66.3496C66.4563 33.9329 66.5416 33.9649 66.6056 34.0289C66.6803 34.0823 66.723 34.1356 66.7336 34.1889L68.5416 40.3009L70.4616 34.2689C70.483 34.1836 70.531 34.1089 70.6056 34.0449C70.6803 33.9703 70.7816 33.9329 70.9096 33.9329H71.4216C71.5496 33.9329 71.651 33.9703 71.7256 34.0449C71.8003 34.1089 71.8483 34.1836 71.8696 34.2689L73.7896 40.3009L75.5976 34.1889C75.6083 34.1356 75.6456 34.0823 75.7096 34.0289C75.7843 33.9649 75.875 33.9329 75.9816 33.9329H76.6376C76.7336 33.9329 76.8136 33.9649 76.8776 34.0289C76.9416 34.0929 76.9736 34.1729 76.9736 34.2689L76.9416 34.4289L74.6696 41.8529C74.627 41.9916 74.5683 42.0929 74.4936 42.1569C74.419 42.2209 74.307 42.2529 74.1576 42.2529H73.5816C73.3043 42.2529 73.123 42.1196 73.0376 41.8529L71.1656 36.0609L69.2936 41.8529C69.2083 42.1196 69.027 42.2529 68.7496 42.2529H68.1736ZM79.0025 32.3649C78.8958 32.3649 78.8052 32.3329 78.7305 32.2689C78.6665 32.1943 78.6345 32.1036 78.6345 31.9969V31.1649C78.6345 31.0583 78.6665 30.9676 78.7305 30.8929C78.8052 30.8183 78.8958 30.7809 79.0025 30.7809H79.9465C80.0532 30.7809 80.1438 30.8183 80.2185 30.8929C80.2932 30.9676 80.3305 31.0583 80.3305 31.1649V31.9969C80.3305 32.1036 80.2932 32.1943 80.2185 32.2689C80.1438 32.3329 80.0532 32.3649 79.9465 32.3649H79.0025ZM79.1305 42.2529C79.0238 42.2529 78.9332 42.2209 78.8585 42.1569C78.7945 42.0823 78.7625 41.9916 78.7625 41.8849V34.3009C78.7625 34.1943 78.7945 34.1089 78.8585 34.0449C78.9332 33.9703 79.0238 33.9329 79.1305 33.9329H79.8345C79.9412 33.9329 80.0265 33.9703 80.0905 34.0449C80.1652 34.1089 80.2025 34.1943 80.2025 34.3009V41.8849C80.2025 41.9916 80.1652 42.0823 80.0905 42.1569C80.0265 42.2209 79.9412 42.2529 79.8345 42.2529H79.1305ZM85.8063 42.2529C84.1529 42.2529 83.3263 41.3196 83.3263 39.4529V35.1649H82.0623C81.9556 35.1649 81.8703 35.1329 81.8063 35.0689C81.7423 35.0049 81.7103 34.9196 81.7103 34.8129V34.3009C81.7103 34.1943 81.7423 34.1089 81.8063 34.0449C81.8703 33.9703 81.9556 33.9329 82.0623 33.9329H83.3263V31.2609C83.3263 31.1543 83.3583 31.0689 83.4223 31.0049C83.4863 30.9303 83.5716 30.8929 83.6783 30.8929H84.3823C84.4889 30.8929 84.5743 30.9303 84.6383 31.0049C84.7129 31.0689 84.7503 31.1543 84.7503 31.2609V33.9329H86.7343C86.8409 33.9329 86.9263 33.9703 86.9903 34.0449C87.0649 34.1089 87.1023 34.1943 87.1023 34.3009V34.8129C87.1023 34.9196 87.0649 35.0049 86.9903 35.0689C86.9263 35.1329 86.8409 35.1649 86.7343 35.1649H84.7503V39.3409C84.7503 39.8849 84.8356 40.2956 85.0063 40.5729C85.1876 40.8503 85.4916 40.9889 85.9183 40.9889H86.8943C87.0009 40.9889 87.0863 41.0263 87.1503 41.1009C87.2143 41.1649 87.2463 41.2503 87.2463 41.3569V41.8849C87.2463 41.9916 87.2143 42.0823 87.1503 42.1569C87.0863 42.2209 87.0009 42.2529 86.8943 42.2529H85.8063ZM89.1934 42.2529C89.0867 42.2529 88.996 42.2209 88.9214 42.1569C88.8574 42.0823 88.8254 41.9916 88.8254 41.8849V31.2609C88.8254 31.1436 88.8574 31.0529 88.9214 30.9889C88.996 30.9249 89.0867 30.8929 89.1934 30.8929H89.9294C90.0467 30.8929 90.1374 30.9249 90.2014 30.9889C90.2654 31.0529 90.2974 31.1436 90.2974 31.2609V34.9889C90.6067 34.5943 90.9694 34.2956 91.3854 34.0929C91.812 33.8796 92.3347 33.7729 92.9534 33.7729C93.9774 33.7729 94.772 34.1036 95.3374 34.7649C95.9134 35.4156 96.2014 36.2796 96.2014 37.3569V41.8849C96.2014 41.9916 96.164 42.0823 96.0894 42.1569C96.0254 42.2209 95.94 42.2529 95.8334 42.2529H95.0814C94.9747 42.2529 94.884 42.2209 94.8094 42.1569C94.7454 42.0823 94.7134 41.9916 94.7134 41.8849V37.4529C94.7134 36.6849 94.5267 36.0876 94.1534 35.6609C93.78 35.2343 93.2414 35.0209 92.5374 35.0209C91.8547 35.0209 91.3107 35.2396 90.9054 35.6769C90.5 36.1036 90.2974 36.6956 90.2974 37.4529V41.8849C90.2974 41.9916 90.26 42.0823 90.1854 42.1569C90.1214 42.2209 90.036 42.2529 89.9294 42.2529H89.1934ZM102.85 42.2529C102.743 42.2529 102.652 42.2209 102.578 42.1569C102.514 42.0823 102.482 41.9916 102.482 41.8849V31.2609C102.482 31.1436 102.514 31.0529 102.578 30.9889C102.652 30.9249 102.743 30.8929 102.85 30.8929H103.586C103.703 30.8929 103.794 30.9249 103.858 30.9889C103.922 31.0529 103.954 31.1436 103.954 31.2609V34.9889C104.263 34.5943 104.626 34.2956 105.042 34.0929C105.468 33.8796 105.991 33.7729 106.61 33.7729C107.634 33.7729 108.428 34.1036 108.994 34.7649C109.57 35.4156 109.858 36.2796 109.858 37.3569V41.8849C109.858 41.9916 109.82 42.0823 109.746 42.1569C109.682 42.2209 109.596 42.2529 109.49 42.2529H108.738C108.631 42.2529 108.54 42.2209 108.466 42.1569C108.402 42.0823 108.37 41.9916 108.37 41.8849V37.4529C108.37 36.6849 108.183 36.0876 107.81 35.6609C107.436 35.2343 106.898 35.0209 106.194 35.0209C105.511 35.0209 104.967 35.2396 104.562 35.6769C104.156 36.1036 103.954 36.6956 103.954 37.4529V41.8849C103.954 41.9916 103.916 42.0823 103.842 42.1569C103.778 42.2209 103.692 42.2529 103.586 42.2529H102.85ZM112.424 32.3649C112.318 32.3649 112.227 32.3329 112.152 32.2689C112.088 32.1943 112.056 32.1036 112.056 31.9969V31.1649C112.056 31.0583 112.088 30.9676 112.152 30.8929C112.227 30.8183 112.318 30.7809 112.424 30.7809H113.368C113.475 30.7809 113.566 30.8183 113.64 30.8929C113.715 30.9676 113.752 31.0583 113.752 31.1649V31.9969C113.752 32.1036 113.715 32.1943 113.64 32.2689C113.566 32.3329 113.475 32.3649 113.368 32.3649H112.424ZM112.552 42.2529C112.446 42.2529 112.355 42.2209 112.28 42.1569C112.216 42.0823 112.184 41.9916 112.184 41.8849V34.3009C112.184 34.1943 112.216 34.1089 112.28 34.0449C112.355 33.9703 112.446 33.9329 112.552 33.9329H113.256C113.363 33.9329 113.448 33.9703 113.512 34.0449C113.587 34.1089 113.624 34.1943 113.624 34.3009V41.8849C113.624 41.9916 113.587 42.0823 113.512 42.1569C113.448 42.2209 113.363 42.2529 113.256 42.2529H112.552ZM119.404 45.7729C118.519 45.7729 117.809 45.6236 117.276 45.3249C116.743 45.0263 116.364 44.6849 116.14 44.3009C115.927 43.9169 115.82 43.5863 115.82 43.3089C115.82 43.2129 115.857 43.1276 115.932 43.0529C116.007 42.9889 116.092 42.9569 116.188 42.9569H116.892C116.988 42.9569 117.068 42.9783 117.132 43.0209C117.196 43.0743 117.249 43.1649 117.292 43.2929C117.591 44.1463 118.268 44.5729 119.324 44.5729C120.124 44.5729 120.716 44.4023 121.1 44.0609C121.484 43.7196 121.676 43.1169 121.676 42.2529V41.1489C121.057 41.9383 120.193 42.3329 119.084 42.3329C117.953 42.3329 117.105 41.9703 116.54 41.2449C115.985 40.5196 115.692 39.6023 115.66 38.4929L115.644 38.0449L115.66 37.6129C115.692 36.5143 115.985 35.6023 116.54 34.8769C117.105 34.1409 117.953 33.7729 119.084 33.7729C120.204 33.7729 121.079 34.1836 121.708 35.0049V34.3169C121.708 34.2103 121.74 34.1196 121.804 34.0449C121.879 33.9703 121.969 33.9329 122.076 33.9329H122.764C122.871 33.9329 122.956 33.9703 123.02 34.0449C123.095 34.1196 123.132 34.2103 123.132 34.3169V42.0769C123.132 44.5409 121.889 45.7729 119.404 45.7729ZM119.372 41.0849C120.119 41.0849 120.679 40.8449 121.052 40.3649C121.436 39.8743 121.644 39.2876 121.676 38.6049C121.687 38.5089 121.692 38.3223 121.692 38.0449C121.692 37.7783 121.687 37.5969 121.676 37.5009C121.644 36.8183 121.436 36.2369 121.052 35.7569C120.679 35.2663 120.119 35.0209 119.372 35.0209C118.604 35.0209 118.044 35.2663 117.692 35.7569C117.351 36.2369 117.164 36.8609 117.132 37.6289L117.116 38.0449L117.132 38.4769C117.164 39.2449 117.351 39.8743 117.692 40.3649C118.044 40.8449 118.604 41.0849 119.372 41.0849ZM125.928 42.2529C125.821 42.2529 125.73 42.2209 125.656 42.1569C125.592 42.0823 125.56 41.9916 125.56 41.8849V31.2609C125.56 31.1436 125.592 31.0529 125.656 30.9889C125.73 30.9249 125.821 30.8929 125.928 30.8929H126.664C126.781 30.8929 126.872 30.9249 126.936 30.9889C127 31.0529 127.032 31.1436 127.032 31.2609V34.9889C127.341 34.5943 127.704 34.2956 128.12 34.0929C128.546 33.8796 129.069 33.7729 129.688 33.7729C130.712 33.7729 131.506 34.1036 132.072 34.7649C132.648 35.4156 132.936 36.2796 132.936 37.3569V41.8849C132.936 41.9916 132.898 42.0823 132.824 42.1569C132.76 42.2209 132.674 42.2529 132.568 42.2529H131.816C131.709 42.2529 131.618 42.2209 131.544 42.1569C131.48 42.0823 131.448 41.9916 131.448 41.8849V37.4529C131.448 36.6849 131.261 36.0876 130.888 35.6609C130.514 35.2343 129.976 35.0209 129.272 35.0209C128.589 35.0209 128.045 35.2396 127.64 35.6769C127.234 36.1036 127.032 36.6956 127.032 37.4529V41.8849C127.032 41.9916 126.994 42.0823 126.92 42.1569C126.856 42.2209 126.77 42.2529 126.664 42.2529H125.928ZM142.048 42.4129C141.312 42.4129 140.688 42.2956 140.176 42.0609C139.675 41.8156 139.301 41.5383 139.056 41.2289C138.811 40.9196 138.688 40.6636 138.688 40.4609C138.688 40.3543 138.725 40.2743 138.8 40.2209C138.875 40.1569 138.955 40.1249 139.04 40.1249H139.712C139.776 40.1249 139.824 40.1356 139.856 40.1569C139.899 40.1783 139.952 40.2263 140.016 40.3009C140.261 40.5996 140.533 40.8343 140.832 41.0049C141.141 41.1756 141.552 41.2609 142.064 41.2609C142.64 41.2609 143.099 41.1543 143.44 40.9409C143.792 40.7276 143.968 40.4183 143.968 40.0129C143.968 39.7463 143.893 39.5329 143.744 39.3729C143.595 39.2129 143.344 39.0689 142.992 38.9409C142.651 38.8129 142.139 38.6743 141.456 38.5249C140.528 38.3223 139.872 38.0289 139.488 37.6449C139.104 37.2609 138.912 36.7649 138.912 36.1569C138.912 35.7623 139.029 35.3836 139.264 35.0209C139.499 34.6476 139.845 34.3489 140.304 34.1249C140.773 33.8903 141.328 33.7729 141.968 33.7729C142.64 33.7729 143.211 33.8849 143.68 34.1089C144.16 34.3329 144.517 34.5943 144.752 34.8929C144.997 35.1916 145.12 35.4423 145.12 35.6449C145.12 35.7409 145.083 35.8209 145.008 35.8849C144.944 35.9489 144.864 35.9809 144.768 35.9809H144.16C144.011 35.9809 143.904 35.9223 143.84 35.8049C143.659 35.6023 143.504 35.4476 143.376 35.3409C143.259 35.2236 143.083 35.1276 142.848 35.0529C142.613 34.9676 142.32 34.9249 141.968 34.9249C141.445 34.9249 141.045 35.0369 140.768 35.2609C140.491 35.4743 140.352 35.7623 140.352 36.1249C140.352 36.3489 140.411 36.5409 140.528 36.7009C140.645 36.8503 140.869 36.9943 141.2 37.1329C141.531 37.2609 142.021 37.3943 142.672 37.5329C143.685 37.7463 144.4 38.0503 144.816 38.4449C145.243 38.8396 145.456 39.3463 145.456 39.9649C145.456 40.4236 145.323 40.8396 145.056 41.2129C144.8 41.5863 144.411 41.8796 143.888 42.0929C143.376 42.3063 142.763 42.4129 142.048 42.4129ZM147.709 45.2929C147.602 45.2929 147.512 45.2609 147.437 45.1969C147.373 45.1329 147.341 45.0423 147.341 44.9249V34.3009C147.341 34.1836 147.373 34.0929 147.437 34.0289C147.512 33.9649 147.602 33.9329 147.709 33.9329H148.381C148.498 33.9329 148.589 33.9649 148.653 34.0289C148.717 34.0929 148.749 34.1836 148.749 34.3009V35.0049C149.368 34.1836 150.248 33.7729 151.389 33.7729C152.509 33.7729 153.346 34.1303 153.901 34.8449C154.466 35.5489 154.765 36.4503 154.797 37.5489C154.808 37.6663 154.813 37.8476 154.813 38.0929C154.813 38.3383 154.808 38.5196 154.797 38.6369C154.765 39.7249 154.466 40.6263 153.901 41.3409C153.346 42.0556 152.509 42.4129 151.389 42.4129C150.248 42.4129 149.384 42.0076 148.797 41.1969V44.9249C148.797 45.0316 148.76 45.1169 148.685 45.1809C148.621 45.2556 148.536 45.2929 148.429 45.2929H147.709ZM151.085 41.1649C151.853 41.1649 152.413 40.9249 152.765 40.4449C153.117 39.9649 153.309 39.3356 153.341 38.5569C153.352 38.4503 153.357 38.2956 153.357 38.0929C153.357 36.0449 152.6 35.0209 151.085 35.0209C150.338 35.0209 149.773 35.2716 149.389 35.7729C149.016 36.2636 148.818 36.8449 148.797 37.5169C148.786 37.6343 148.781 37.8423 148.781 38.1409C148.781 38.4396 148.786 38.6476 148.797 38.7649C148.818 39.4156 149.021 39.9809 149.405 40.4609C149.8 40.9303 150.36 41.1649 151.085 41.1649ZM160.121 42.4129C159.033 42.4129 158.164 42.0769 157.513 41.4049C156.862 40.7223 156.505 39.7943 156.441 38.6209L156.425 38.0769L156.441 37.5489C156.505 36.3969 156.862 35.4796 157.513 34.7969C158.164 34.1143 159.033 33.7729 160.121 33.7729C161.294 33.7729 162.201 34.1463 162.841 34.8929C163.492 35.6396 163.817 36.6529 163.817 37.9329V38.2209C163.817 38.3276 163.78 38.4183 163.705 38.4929C163.641 38.5569 163.556 38.5889 163.449 38.5889H157.897V38.7329C157.929 39.4263 158.142 40.0183 158.537 40.5089C158.932 40.9996 159.454 41.2449 160.105 41.2449C160.606 41.2449 161.012 41.1489 161.321 40.9569C161.641 40.7543 161.881 40.5463 162.041 40.3329C162.137 40.2049 162.212 40.1303 162.265 40.1089C162.318 40.0769 162.409 40.0609 162.537 40.0609H163.241C163.337 40.0609 163.417 40.0876 163.481 40.1409C163.556 40.1943 163.593 40.2636 163.593 40.3489C163.593 40.5836 163.449 40.8663 163.161 41.1969C162.873 41.5276 162.462 41.8156 161.929 42.0609C161.406 42.2956 160.804 42.4129 160.121 42.4129ZM162.361 37.5009V37.4529C162.361 36.7063 162.158 36.0983 161.753 35.6289C161.348 35.1596 160.804 34.9249 160.121 34.9249C159.428 34.9249 158.884 35.1596 158.489 35.6289C158.094 36.0983 157.897 36.7063 157.897 37.4529V37.5009H162.361ZM169.059 42.4129C167.971 42.4129 167.101 42.0769 166.451 41.4049C165.8 40.7223 165.443 39.7943 165.379 38.6209L165.363 38.0769L165.379 37.5489C165.443 36.3969 165.8 35.4796 166.451 34.7969C167.101 34.1143 167.971 33.7729 169.059 33.7729C170.232 33.7729 171.139 34.1463 171.779 34.8929C172.429 35.6396 172.755 36.6529 172.755 37.9329V38.2209C172.755 38.3276 172.717 38.4183 172.642 38.4929C172.579 38.5569 172.493 38.5889 172.387 38.5889H166.835V38.7329C166.867 39.4263 167.08 40.0183 167.475 40.5089C167.869 40.9996 168.392 41.2449 169.043 41.2449C169.544 41.2449 169.949 41.1489 170.259 40.9569C170.579 40.7543 170.819 40.5463 170.979 40.3329C171.075 40.2049 171.149 40.1303 171.203 40.1089C171.256 40.0769 171.347 40.0609 171.475 40.0609H172.179C172.275 40.0609 172.355 40.0876 172.419 40.1409C172.493 40.1943 172.531 40.2636 172.531 40.3489C172.531 40.5836 172.387 40.8663 172.099 41.1969C171.811 41.5276 171.4 41.8156 170.867 42.0609C170.344 42.2956 169.741 42.4129 169.059 42.4129ZM171.299 37.5009V37.4529C171.299 36.7063 171.096 36.0983 170.691 35.6289C170.285 35.1596 169.741 34.9249 169.059 34.9249C168.365 34.9249 167.821 35.1596 167.427 35.6289C167.032 36.0983 166.835 36.7063 166.835 37.4529V37.5009H171.299ZM177.74 42.4129C176.62 42.4129 175.777 42.0503 175.212 41.3249C174.657 40.5996 174.359 39.6823 174.316 38.5729L174.3 38.0929L174.316 37.6129C174.359 36.5143 174.663 35.6023 175.228 34.8769C175.793 34.1409 176.631 33.7729 177.74 33.7729C178.849 33.7729 179.713 34.1676 180.332 34.9569V31.2609C180.332 31.1543 180.364 31.0689 180.428 31.0049C180.503 30.9303 180.593 30.8929 180.7 30.8929H181.42C181.527 30.8929 181.612 30.9303 181.676 31.0049C181.751 31.0689 181.788 31.1543 181.788 31.2609V41.8849C181.788 41.9916 181.751 42.0823 181.676 42.1569C181.612 42.2209 181.527 42.2529 181.42 42.2529H180.732C180.625 42.2529 180.54 42.2209 180.476 42.1569C180.412 42.0823 180.38 41.9916 180.38 41.8849V41.1969C179.772 42.0076 178.892 42.4129 177.74 42.4129ZM178.044 41.1649C178.791 41.1649 179.351 40.9196 179.724 40.4289C180.097 39.9276 180.3 39.3356 180.332 38.6529C180.343 38.5356 180.348 38.3329 180.348 38.0449C180.348 37.7463 180.343 37.5383 180.332 37.4209C180.311 36.7703 180.103 36.2103 179.708 35.7409C179.324 35.2609 178.769 35.0209 178.044 35.0209C177.276 35.0209 176.716 35.2609 176.364 35.7409C176.012 36.2209 175.82 36.8503 175.788 37.6289L175.772 38.0929C175.772 40.1409 176.529 41.1649 178.044 41.1649ZM184.456 42.2529C184.349 42.2529 184.259 42.2209 184.184 42.1569C184.12 42.0823 184.088 41.9916 184.088 41.8849V40.7809C184.088 40.6743 184.12 40.5836 184.184 40.5089C184.259 40.4343 184.349 40.3969 184.456 40.3969H185.56C185.667 40.3969 185.752 40.4343 185.816 40.5089C185.891 40.5836 185.928 40.6743 185.928 40.7809V41.8849C185.928 41.9916 185.891 42.0823 185.816 42.1569C185.752 42.2209 185.667 42.2529 185.56 42.2529H184.456ZM186.527 33.9329C186.442 33.9329 186.373 33.9009 186.319 33.8369C186.277 33.7729 186.266 33.6929 186.287 33.5969L186.639 31.3569C186.682 31.0476 186.831 30.8929 187.087 30.8929H188.111C188.186 30.8929 188.245 30.9196 188.287 30.9729C188.341 31.0263 188.367 31.0903 188.367 31.1649C188.367 31.2716 188.351 31.3569 188.319 31.4209L187.487 33.5809C187.434 33.6983 187.375 33.7889 187.311 33.8529C187.247 33.9063 187.151 33.9329 187.023 33.9329H186.527ZM189.039 33.9329C188.954 33.9329 188.885 33.9009 188.831 33.8369C188.789 33.7729 188.778 33.6929 188.799 33.5969L189.151 31.3569C189.194 31.0476 189.343 30.8929 189.599 30.8929H190.623C190.698 30.8929 190.757 30.9196 190.799 30.9729C190.853 31.0263 190.879 31.0903 190.879 31.1649C190.879 31.2716 190.863 31.3569 190.831 31.4209L189.999 33.5809C189.946 33.6983 189.887 33.7889 189.823 33.8529C189.759 33.9063 189.663 33.9329 189.535 33.9329H189.039ZM191.253 42.2529C191.146 42.2529 191.056 42.2209 190.981 42.1569C190.917 42.0823 190.885 41.9916 190.885 41.8849V40.7809C190.885 40.6743 190.917 40.5836 190.981 40.5089C191.056 40.4343 191.146 40.3969 191.253 40.3969H192.357C192.464 40.3969 192.549 40.4343 192.613 40.5089C192.688 40.5836 192.725 40.6743 192.725 40.7809V41.8849C192.725 41.9916 192.688 42.0823 192.613 42.1569C192.549 42.2209 192.464 42.2529 192.357 42.2529H191.253Z" fill="#0B132A"/>
</svg>
